# xmcd CD database file
#
# Track frame offsets:
#	150
#	13221
#	33442
#	56150
#	71262
#	101381
#	130355
#	152610
#	173053
#	187711
#
# Disc length: 2810 seconds
#
# Revision: 0
# Processed by: cddbd v1.5.2PL0 Copyright (c) Steve Scherf et al.
# Submitted via: CDex 1.70beta2
#
DISCID=790af80a
DTITLE=John Lee Hooker - Mr. Lucky
DYEAR=1991
DGENRE=Blues
TTITLE0=I want To Hug You
TTITLE1=Mr. Lucky
TTITLE2=Back Stabbers
TTITLE3=This Is Hip
TTITLE4=I Cover The waterfront
TTITLE5=Highway 13
TTITLE6=Stripped Me Naked
TTITLE7=Susie
TTITLE8=Crawlin' king Snake
TTITLE9=Father Was A Jockey
EXTD=YEAR: 1991
EXTT0=
EXTT1=
EXTT2=
EXTT3=
EXTT4=
EXTT5=
EXTT6=
EXTT7=
EXTT8=
EXTT9=
PLAYORDER=
